<?xml version="1.0" standalone="no"?>
<!DOCTYPE svg PUBLIC "-//W3C//DTD SVG 20010904//EN"
 "http://www.w3.org/TR/2001/REC-SVG-20010904/DTD/svg10.dtd">
<svg version="1.0" xmlns="http://www.w3.org/2000/svg"
 width="500.000000pt" height="500.000000pt" viewBox="0 0 500.000000 500.000000"
 preserveAspectRatio="xMidYMid meet">
<metadata>
Created by potrace 1.14, written by Peter Selinger 2001-2017
</metadata>
<g transform="translate(0.000000,500.000000) scale(0.100000,-0.100000)"
fill="#000000" stroke="none">
<path d="M2225 4985 c-744 -83 -1411 -496 -1824 -1130 -198 -302 -327 -657
-383 -1050 -19 -132 -16 -491 5 -640 110 -775 564 -1447 1237 -1833 282 -161
614 -270 955 -313 146 -18 454 -16 605 5 683 93 1277 441 1687 990 359 480
538 1110 483 1701 -83 885 -600 1638 -1395 2030 -417 206 -905 291 -1370 240z
m1125 -2077 c0 -1072 -1 -1103 -50 -1263 -67 -216 -223 -394 -429 -487 -252
-115 -632 -116 -905 -2 -93 39 -218 127 -286 202 -139 151 -216 344 -235 595
l-7 87 344 0 345 0 6 -74 c7 -93 37 -165 92 -215 54 -50 102 -64 196 -59 91 5
141 28 180 81 61 84 59 47 59 1132 0 545 3 995 7 998 3 4 159 7 345 7 l338 0
0 -1002z"/>
</g>
</svg>
