<svg width="1440" height="1451" viewBox="0 0 1440 1451" fill="none" xmlns="http://www.w3.org/2000/svg">
<path opacity="0.05" d="M160.772 1H0.992432V162H160.772V1Z" stroke="white"/>
<path opacity="0.05" d="M160.772 162H0.992432V323H160.772V162Z" stroke="white"/>
<path opacity="0.05" d="M160.772 323H0.992432V484H160.772V323Z" stroke="white"/>
<path opacity="0.05" d="M160.772 484H0.992432V645H160.772V484Z" stroke="white"/>
<path opacity="0.05" d="M160.772 645H0.992432V806H160.772V645Z" stroke="white"/>
<path opacity="0.05" d="M160.772 806H0.992432V967H160.772V806Z" stroke="white"/>
<path opacity="0.05" d="M160.772 967H0.992432V1128H160.772V967Z" stroke="white"/>
<path opacity="0.05" d="M160.772 1128H0.992432V1289H160.772V1128Z" stroke="white"/>
<path opacity="0.05" d="M160.772 1289H0.992432V1450H160.772V1289Z" stroke="white"/>
<path opacity="0.05" d="M320.551 1H160.772V162H320.551V1Z" stroke="white"/>
<path opacity="0.05" d="M320.551 162H160.772V323H320.551V162Z" stroke="white"/>
<path opacity="0.05" d="M320.551 323H160.772V484H320.551V323Z" stroke="white"/>
<path opacity="0.05" d="M320.551 484H160.772V645H320.551V484Z" stroke="white"/>
<path opacity="0.05" d="M320.551 645H160.772V806H320.551V645Z" stroke="white"/>
<path opacity="0.05" d="M320.551 806H160.772V967H320.551V806Z" stroke="white"/>
<path opacity="0.05" d="M320.551 967H160.772V1128H320.551V967Z" stroke="white"/>
<path opacity="0.05" d="M320.551 1128H160.772V1289H320.551V1128Z" stroke="white"/>
<path opacity="0.05" d="M320.551 1289H160.772V1450H320.551V1289Z" stroke="white"/>
<path opacity="0.05" d="M480.331 1H320.551V162H480.331V1Z" stroke="white"/>
<path opacity="0.05" d="M480.331 162H320.551V323H480.331V162Z" stroke="white"/>
<path opacity="0.05" d="M480.331 323H320.551V484H480.331V323Z" stroke="white"/>
<path opacity="0.05" d="M480.331 484H320.551V645H480.331V484Z" stroke="white"/>
<path opacity="0.05" d="M480.331 645H320.551V806H480.331V645Z" stroke="white"/>
<path opacity="0.05" d="M480.331 806H320.551V967H480.331V806Z" stroke="white"/>
<path opacity="0.05" d="M480.331 967H320.551V1128H480.331V967Z" stroke="white"/>
<path opacity="0.05" d="M480.331 1128H320.551V1289H480.331V1128Z" stroke="white"/>
<path opacity="0.05" d="M480.331 1289H320.551V1450H480.331V1289Z" stroke="white"/>
<path opacity="0.05" d="M640.11 1H480.331V162H640.11V1Z" stroke="white"/>
<path opacity="0.05" d="M640.11 162H480.331V323H640.11V162Z" stroke="white"/>
<path opacity="0.05" d="M640.11 323H480.331V484H640.11V323Z" stroke="white"/>
<path opacity="0.05" d="M640.11 484H480.331V645H640.11V484Z" stroke="white"/>
<path opacity="0.05" d="M640.11 645H480.331V806H640.11V645Z" stroke="white"/>
<path opacity="0.05" d="M640.11 806H480.331V967H640.11V806Z" stroke="white"/>
<path opacity="0.05" d="M640.11 967H480.331V1128H640.11V967Z" stroke="white"/>
<path opacity="0.05" d="M640.11 1128H480.331V1289H640.11V1128Z" stroke="white"/>
<path opacity="0.05" d="M640.11 1289H480.331V1450H640.11V1289Z" stroke="white"/>
<path opacity="0.05" d="M799.89 1H640.11V162H799.89V1Z" stroke="white"/>
<path opacity="0.05" d="M799.89 162H640.11V323H799.89V162Z" stroke="white"/>
<path opacity="0.05" d="M799.89 323H640.11V484H799.89V323Z" stroke="white"/>
<path opacity="0.05" d="M799.89 484H640.11V645H799.89V484Z" stroke="white"/>
<path opacity="0.05" d="M799.89 645H640.11V806H799.89V645Z" stroke="white"/>
<path opacity="0.05" d="M799.89 806H640.11V967H799.89V806Z" stroke="white"/>
<path opacity="0.05" d="M799.89 967H640.11V1128H799.89V967Z" stroke="white"/>
<path opacity="0.05" d="M799.89 1128H640.11V1289H799.89V1128Z" stroke="white"/>
<path opacity="0.05" d="M799.89 1289H640.11V1450H799.89V1289Z" stroke="white"/>
<path opacity="0.05" d="M959.669 1H799.89V162H959.669V1Z" stroke="white"/>
<path opacity="0.05" d="M959.669 162H799.89V323H959.669V162Z" stroke="white"/>
<path opacity="0.05" d="M959.669 323H799.89V484H959.669V323Z" stroke="white"/>
<path opacity="0.05" d="M959.669 484H799.89V645H959.669V484Z" stroke="white"/>
<path opacity="0.05" d="M959.669 645H799.89V806H959.669V645Z" stroke="white"/>
<path opacity="0.05" d="M959.669 806H799.89V967H959.669V806Z" stroke="white"/>
<path opacity="0.05" d="M959.669 967H799.89V1128H959.669V967Z" stroke="white"/>
<path opacity="0.05" d="M959.669 1128H799.89V1289H959.669V1128Z" stroke="white"/>
<path opacity="0.05" d="M959.669 1289H799.89V1450H959.669V1289Z" stroke="white"/>
<path opacity="0.05" d="M1119.45 1H959.669V162H1119.45V1Z" stroke="white"/>
<path opacity="0.05" d="M1119.45 162H959.669V323H1119.45V162Z" stroke="white"/>
<path opacity="0.05" d="M1119.45 323H959.669V484H1119.45V323Z" stroke="white"/>
<path opacity="0.05" d="M1119.45 484H959.669V645H1119.45V484Z" stroke="white"/>
<path opacity="0.05" d="M1119.45 645H959.669V806H1119.45V645Z" stroke="white"/>
<path opacity="0.05" d="M1119.45 806H959.669V967H1119.45V806Z" stroke="white"/>
<path opacity="0.05" d="M1119.45 967H959.669V1128H1119.45V967Z" stroke="white"/>
<path opacity="0.05" d="M1119.45 1128H959.669V1289H1119.45V1128Z" stroke="white"/>
<path opacity="0.05" d="M1119.45 1289H959.669V1450H1119.45V1289Z" stroke="white"/>
<path opacity="0.05" d="M1279.23 1H1119.45V162H1279.23V1Z" stroke="white"/>
<path opacity="0.05" d="M1279.23 162H1119.45V323H1279.23V162Z" stroke="white"/>
<path opacity="0.05" d="M1279.23 323H1119.45V484H1279.23V323Z" stroke="white"/>
<path opacity="0.05" d="M1279.23 484H1119.45V645H1279.23V484Z" stroke="white"/>
<path opacity="0.05" d="M1279.23 645H1119.45V806H1279.23V645Z" stroke="white"/>
<path opacity="0.05" d="M1279.23 806H1119.45V967H1279.23V806Z" stroke="white"/>
<path opacity="0.05" d="M1279.23 967H1119.45V1128H1279.23V967Z" stroke="white"/>
<path opacity="0.05" d="M1279.23 1128H1119.45V1289H1279.23V1128Z" stroke="white"/>
<path opacity="0.05" d="M1279.23 1289H1119.45V1450H1279.23V1289Z" stroke="white"/>
<path opacity="0.05" d="M1439.01 1H1279.23V162H1439.01V1Z" stroke="white"/>
<path opacity="0.05" d="M1439.01 162H1279.23V323H1439.01V162Z" stroke="white"/>
<path opacity="0.05" d="M1439.01 323H1279.23V484H1439.01V323Z" stroke="white"/>
<path opacity="0.05" d="M1439.01 484H1279.23V645H1439.01V484Z" stroke="white"/>
<path opacity="0.05" d="M1439.01 645H1279.23V806H1439.01V645Z" stroke="white"/>
<path opacity="0.05" d="M1439.01 806H1279.23V967H1439.01V806Z" stroke="white"/>
<path opacity="0.05" d="M1439.01 967H1279.23V1128H1439.01V967Z" stroke="white"/>
<path opacity="0.05" d="M1439.01 1128H1279.23V1289H1439.01V1128Z" stroke="white"/>
<path opacity="0.05" d="M1439.01 1289H1279.23V1450H1439.01V1289Z" stroke="white"/>
</svg>
