<svg width="377" height="1451" viewBox="0 0 377 1451" fill="none" xmlns="http://www.w3.org/2000/svg">
<path opacity="0.05" d="M126 1H1V162H126V1Z" stroke="white"/>
<path opacity="0.05" d="M126 162H1V323H126V162Z" stroke="white"/>
<path opacity="0.05" d="M126 323H1V484H126V323Z" stroke="white"/>
<path opacity="0.05" d="M126 484H1V645H126V484Z" stroke="white"/>
<path opacity="0.05" d="M126 645H1V806H126V645Z" stroke="white"/>
<path opacity="0.05" d="M126 806H1V967H126V806Z" stroke="white"/>
<path opacity="0.05" d="M126 967H1V1128H126V967Z" stroke="white"/>
<path opacity="0.05" d="M126 1128H1V1289H126V1128Z" stroke="white"/>
<path opacity="0.05" d="M126 1289H1V1450H126V1289Z" stroke="white"/>
<path opacity="0.05" d="M251 1H126V162H251V1Z" stroke="white"/>
<path opacity="0.05" d="M251 162H126V323H251V162Z" stroke="white"/>
<path opacity="0.05" d="M251 323H126V484H251V323Z" stroke="white"/>
<path opacity="0.05" d="M251 484H126V645H251V484Z" stroke="white"/>
<path opacity="0.05" d="M251 645H126V806H251V645Z" stroke="white"/>
<path opacity="0.05" d="M251 806H126V967H251V806Z" stroke="white"/>
<path opacity="0.05" d="M251 967H126V1128H251V967Z" stroke="white"/>
<path opacity="0.05" d="M251 1128H126V1289H251V1128Z" stroke="white"/>
<path opacity="0.05" d="M251 1289H126V1450H251V1289Z" stroke="white"/>
<path opacity="0.05" d="M376 1H251V162H376V1Z" stroke="white"/>
<path opacity="0.05" d="M376 162H251V323H376V162Z" stroke="white"/>
<path opacity="0.05" d="M376 323H251V484H376V323Z" stroke="white"/>
<path opacity="0.05" d="M376 484H251V645H376V484Z" stroke="white"/>
<path opacity="0.05" d="M376 645H251V806H376V645Z" stroke="white"/>
<path opacity="0.05" d="M376 806H251V967H376V806Z" stroke="white"/>
<path opacity="0.05" d="M376 967H251V1128H376V967Z" stroke="white"/>
<path opacity="0.05" d="M376 1128H251V1289H376V1128Z" stroke="white"/>
<path opacity="0.05" d="M376 1289H251V1450H376V1289Z" stroke="white"/>
</svg>
